# xmcd
#
# Track frame offsets:
#	150
#	12519
#	26017
#	42116
#
# Disc length: 803 seconds
#
# Revision: 1
# Processed by: cddbd v1.5.2PL0 Copyright (c) Steve Scherf et al.
# Submitted via: audiograbber 1.83.01
#
DISCID=28032104
DTITLE=Branded - Branded
DYEAR=1900
DGENRE=Country
TTITLE0=On the Run
TTITLE1=Got my eyes on you
TTITLE2=Country Rap
TTITLE3=That's Our Sound
EXTD=
EXTT0=
EXTT1=
EXTT2=
EXTT3=
PLAYORDER=
